<svg xmlns="http://www.w3.org/2000/svg" xmlns:xlink="http://www.w3.org/1999/xlink" version="1.1" x="0px" y="0px" viewBox="0 0 128 160" enable-background="new 0 0 128 128" xml:space="preserve"><path fill="#000000" d="M97.2,1H30.8c-4.7,0-8.6,3.8-8.6,8.6v108.8c0,4.7,3.8,8.6,8.6,8.6h66.3c4.7,0,8.6-3.8,8.6-8.6V9.6  C105.7,4.8,101.9,1,97.2,1z M64,89.3c0,0-26.6-26.6-26.6-36.5c0-7.8,6.3-14.1,14.1-14.1c5.5,0,10.2,3.1,12.5,7.7  c2.3-4.6,7.1-7.7,12.5-7.7c7.8,0,14.1,6.3,14.1,14.1C90.6,62.3,64,89.3,64,89.3z"/><text x="0" y="143" fill="#000000" font-size="5px" font-weight="bold" font-family="'Helvetica Neue', Helvetica, Arial-Unicode, Arial, Sans-serif">Created by Vectors Market</text><text x="0" y="148" fill="#000000" font-size="5px" font-weight="bold" font-family="'Helvetica Neue', Helvetica, Arial-Unicode, Arial, Sans-serif">from the Noun Project</text></svg>